  <svg
    width="30"
    height="30"
    viewBox="0 0 15 15"
    fill="none"
    xmlns="http://www.w3.org/2000/svg"
  >
    <g>
      <path
        d="M12.1875 0H2.8125C1.26188 0 0 1.26188 0 2.8125V12.1875C0 13.7381 1.26188 15 2.8125 15H12.1875C13.7381 15 15 13.7381 15 12.1875V2.8125C15 1.26188 13.7381 0 12.1875 0ZM14.375 12.1875C14.375 13.3938 13.3938 14.375 12.1875 14.375H2.8125C1.60625 14.375 0.625 13.3938 0.625 12.1875V2.8125C0.625 1.60625 1.60625 0.625 2.8125 0.625H12.1875C13.3938 0.625 14.375 1.60625 14.375 2.8125V12.1875Z"
        fill="black"></path>
    </g>
    <defs>
      <clipPath>
        <rect width="15" height="15" fill="white"></rect>
      </clipPath>
    </defs>
  </svg>