  <svg
    width="30"
    height="30"
    viewBox="0 0 15 15"
    fill="none"
    xmlns="http://www.w3.org/2000/svg"
  >
    <g>
      <path
        d="M12.1875 0H2.8125C1.26188 0 0 1.26188 0 2.8125V12.1875C0 13.7381 1.26188 15 2.8125 15H12.1875C13.7381 15 15 13.7381 15 12.1875V2.8125C15 1.26188 13.7381 0 12.1875 0ZM14.375 12.1875C14.375 13.3938 13.3938 14.375 12.1875 14.375H2.8125C1.60625 14.375 0.625 13.3938 0.625 12.1875V2.8125C0.625 1.60625 1.60625 0.625 2.8125 0.625H12.1875C13.3938 0.625 14.375 1.60625 14.375 2.8125V12.1875Z"
        fill="black"></path>
      <path
        d="M10.3831 5.95498L8.61562 4.1556C8.49437 4.03248 8.29688 4.0306 8.17375 4.15185C8.05062 4.2731 8.04875 4.4706 8.17 4.59435L9.93937 6.3956C10.0563 6.51248 10.2194 6.69123 10.3863 6.87935C10.4681 6.97185 10.5262 7.07685 10.565 7.18748H4.0625C3.89 7.18748 3.75 7.32748 3.75 7.49998C3.75 7.67248 3.89 7.81248 4.0625 7.81248H10.565C10.5256 7.9231 10.4681 8.0281 10.3856 8.1206C10.2194 8.30873 10.0562 8.48748 9.9375 8.60623L8.17 10.4056C8.04875 10.5287 8.05062 10.7269 8.17375 10.8481C8.235 10.9075 8.31375 10.9375 8.39313 10.9375C8.47375 10.9375 8.555 10.9062 8.61562 10.8444L10.3813 9.04685C10.505 8.9231 10.6781 8.73435 10.8537 8.5356C11.3769 7.9456 11.3769 7.0556 10.8537 6.4656C10.6775 6.26685 10.5044 6.07748 10.3831 5.95623V5.95498Z"
        fill="black"></path>
    </g>
    <defs>
      <clipPath>
        <rect width="15" height="15" fill="white"></rect>
      </clipPath>
    </defs>
  </svg>